<?xml version="1.0" encoding="utf-8"?>
<svg id="master-artboard" viewBox="0 0 216 151.2" version="1.1" xmlns="http://www.w3.org/2000/svg" x="0px" y="0px" width="216px" height="151.1999969482422px" enable-background="new 0 0 216 151.2" xmlns:xlink="http://www.w3.org/1999/xlink">
<g transform="matrix(1, 0, 0, 1, 0, 0)">
		<path d="M 0 0 H 216 V 151.199997 H 0 V 0 Z" fill="#FFFFFF"/>
		<g>
			<defs>
				<path d="M 0 0 H 216 V 151.199997 H 0 V 0 Z" id="SVGID_1_"/>
			</defs>
			<clipPath id="SVGID_2_">
				<use overflow="visible" xlink:href="#SVGID_1_"/>
			</clipPath>
			<g clip-path="url(#SVGID_2_)">
				<g>
					<path d="M 229.264008 -4.929 L 217.559998 -11.686" fill="#0095C1"/>
					<path d="M 229.26400756835938 8.585000038146973 L 217.55999755859375 1.8289999961853027 L 229.26400756835938 -4.927999973297119 Z" fill="#0095C1"/>
					<path d="M 229.26400756835938 22.100000381469727 L 217.55999755859375 15.342000007629395 L 229.26400756835938 8.585000038146973 Z" fill="#00BAD4"/>
					<path d="M 229.26400756835938 35.61399841308594 L 217.55999755859375 28.85700035095215 L 229.26400756835938 22.100000381469727 Z" fill="#00BAD4"/>
					<path d="M 229.26400756835938 49.12799835205078 L 217.55999755859375 42.37099838256836 L 229.26400756835938 35.61399841308594 Z" fill="#0095C1"/>
					<path d="M 229.26400756835938 62.641998291015625 L 217.55999755859375 55.8849983215332 L 229.26400756835938 49.12799835205078 Z" fill="#00BAD4"/>
					<path d="M 229.26400756835938 76.15699768066406 L 217.55999755859375 69.4000015258789 L 229.26400756835938 62.641998291015625 Z" fill="#00BAD4"/>
					<path d="M 229.26400756835938 89.66999816894531 L 217.55999755859375 82.91400146484375 L 229.26400756835938 76.15699768066406 Z" fill="#00BAD4"/>
					<path d="M 229.26400756835938 103.18499755859375 L 217.55999755859375 96.4280014038086 L 229.26400756835938 89.6709976196289 Z" fill="#00BAD4"/>
					<path d="M 229.26400756835938 116.69999694824219 L 217.55999755859375 109.94200134277344 L 229.26400756835938 103.18599700927734 Z" fill="#00BAD4"/>
					<path d="M 229.26400756835938 130.21299743652344 L 217.55999755859375 123.45700073242188 L 229.26400756835938 116.69999694824219 Z" fill="#00BAD4"/>
					<path d="M 229.26400756835938 143.72799682617188 L 217.55999755859375 136.97000122070312 L 229.26400756835938 130.21299743652344 Z" fill="#0095C1"/>
					<path d="M 229.26400756835938 157.24200439453125 L 217.55999755859375 150.48500061035156 L 229.26400756835938 143.72799682617188 Z" fill="#0095C1"/>
					<path d="M 229.26300048828125 170.75599670410156 L 217.55999755859375 164 L 229.26400756835938 157.2429962158203 Z" fill="#00BAD4"/>
					<path fill="#00BAD4" d="M229.263,170.756"/>
					<path opacity="0.5" fill="#00DECD" d="M217.554-11.686"/>
					<path fill="#0095C1" d="M217.554-11.685"/>
					<path d="M 217.5540008544922 -11.6850004196167 L 229.25799560546875 -4.928999900817871 L 217.5540008544922 1.8289999961853027 Z" fill="#00BAD4"/>
					<path d="M 217.5540008544922 1.8289999961853027 L 205.8509979248047 -4.927999973297119 L 217.5540008544922 -11.6850004196167 Z" opacity="0.5" fill="#00DECD"/>
					<path d="M 217.5540008544922 1.8289999961853027 L 229.25799560546875 8.585000038146973 L 217.5540008544922 15.342000007629395 Z" opacity="0.7" fill="#00BAD4"/>
					<path d="M 217.5540008544922 15.342000007629395 L 205.8509979248047 8.586000442504883 L 217.5540008544922 1.8289999961853027 Z" fill="#00BAD4"/>
					<path d="M 217.5540008544922 15.342000007629395 L 229.25799560546875 22.100000381469727 L 217.5540008544922 28.85700035095215 Z" opacity="0.7" fill="#00BAD4"/>
					<path d="M 217.5540008544922 28.85700035095215 L 205.8509979248047 22.100000381469727 L 217.5540008544922 15.343000411987305 Z" fill="#0095C1"/>
					<path d="M 217.5540008544922 28.85700035095215 L 229.25799560546875 35.61399841308594 L 217.5540008544922 42.37099838256836 Z" opacity="0.7" fill="#00BAD4"/>
					<path d="M 217.5540008544922 42.37099838256836 L 205.8509979248047 35.6150016784668 L 217.5540008544922 28.85700035095215 Z" fill="#00BAD4"/>
					<path d="M 217.5540008544922 42.37099838256836 L 229.25799560546875 49.12799835205078 L 217.5540008544922 55.8849983215332 Z" opacity="0.7" fill="#00BAD4"/>
					<path d="M 217.5540008544922 55.8849983215332 L 205.8509979248047 49.12799835205078 L 217.5540008544922 42.37200164794922 Z" fill="#00BAD4"/>
					<path d="M 217.5540008544922 55.8849983215332 L 229.25799560546875 62.641998291015625 L 217.5540008544922 69.4000015258789 Z" fill="#0095C1"/>
					<path d="M 217.5540008544922 69.4000015258789 L 205.8509979248047 62.643001556396484 L 217.5540008544922 55.88600158691406 Z" fill="#00BAD4"/>
					<path d="M 217.5540008544922 69.4000015258789 L 229.25799560546875 76.15699768066406 L 217.5540008544922 82.91400146484375 Z" opacity="0.7" fill="#00BAD4"/>
					<path d="M 217.5540008544922 82.91500091552734 L 205.8509979248047 76.15699768066406 L 217.5540008544922 69.4000015258789 Z" fill="#00BAD4"/>
					<path d="M 217.5540008544922 82.91500091552734 L 229.25799560546875 89.66999816894531 L 217.5540008544922 96.4280014038086 Z" opacity="0.5" fill="#00DECD"/>
					<path d="M 217.5540008544922 96.4280014038086 L 205.8509979248047 89.6709976196289 L 217.5540008544922 82.91500091552734 Z" opacity="0.7" fill="#00BAD4"/>
					<path d="M 217.5540008544922 96.4280014038086 L 229.25799560546875 103.18499755859375 L 217.5540008544922 109.94200134277344 Z" opacity="0.7" fill="#00BAD4"/>
					<path d="M 217.5540008544922 109.94300079345703 L 205.8509979248047 103.18599700927734 L 217.5540008544922 96.4280014038086 Z" fill="#00BAD4"/>
					<path d="M 217.5540008544922 109.94300079345703 L 229.25799560546875 116.69999694824219 L 217.5540008544922 123.45700073242188 Z" fill="#0095C1"/>
					<path d="M 217.5540008544922 123.45700073242188 L 205.8509979248047 116.69999694824219 L 217.5540008544922 109.94300079345703 Z" opacity="0.5" fill="#00DECD"/>
					<path d="M 217.5540008544922 123.45700073242188 L 229.25799560546875 130.21299743652344 L 217.5540008544922 136.97000122070312 Z" opacity="0.7" fill="#00BAD4"/>
					<path d="M 217.5540008544922 136.97000122070312 L 205.8509979248047 130.21400451660156 L 217.5540008544922 123.45700073242188 Z" opacity="0.5" fill="#00DECD"/>
					<path d="M 217.5540008544922 136.97000122070312 L 229.25799560546875 143.72799682617188 L 217.5540008544922 150.48500061035156 Z" opacity="0.7" fill="#00BAD4"/>
					<path d="M 217.5540008544922 150.48599243164062 L 205.8509979248047 143.72799682617188 L 217.5540008544922 136.9709930419922 Z" fill="#00BAD4"/>
					<path d="M 217.5540008544922 150.48599243164062 L 229.25799560546875 157.24200439453125 L 217.5540008544922 164 Z" fill="#00BAD4"/>
					<path d="M 217.554001 164 L 229.257996 170.755997" fill="#0095C1"/>
					<path d="M 205.850998 170.755997 L 217.554001 164" fill="#00BAD4"/>
					<path d="M 217.554001 -11.686 L 205.850998 -4.929" opacity="0.7" fill="#00BAD4"/>
					<path d="M 205.850998 -4.929 L 194.145996 -11.686" fill="#00BAD4"/>
					<path d="M 205.8509979248047 -4.928999900817871 L 217.5540008544922 1.8289999961853027 L 205.8509979248047 8.583999633789062 Z" opacity="0.2" fill="#00DECD"/>
					<path d="M 205.8509979248047 8.585000038146973 L 194.14599609375 1.8289999961853027 L 205.8509979248047 -4.927999973297119 Z" fill="#00BAD4"/>
					<path d="M 205.8509979248047 8.585000038146973 L 217.5540008544922 15.342000007629395 L 205.8509979248047 22.099000930786133 Z" opacity="0.5" fill="#00DECD"/>
					<path d="M 205.8509979248047 22.100000381469727 L 194.14599609375 15.342000007629395 L 205.8509979248047 8.585000038146973 Z" fill="#00BAD4"/>
					<path d="M 205.8509979248047 22.100000381469727 L 217.5540008544922 28.85700035095215 L 205.8509979248047 35.61399841308594 Z" opacity="0.5" fill="#00DECD"/>
					<path d="M 205.8509979248047 35.61399841308594 L 194.14599609375 28.85700035095215 L 205.8509979248047 22.100000381469727 Z" fill="#00BAD4"/>
					<path d="M 205.8509979248047 35.61399841308594 L 217.5540008544922 42.37099838256836 L 205.8509979248047 49.12699890136719 Z" opacity="0.7" fill="#00BAD4"/>
					<path d="M 205.8509979248047 49.12799835205078 L 194.14599609375 42.37099838256836 L 205.8509979248047 35.61399841308594 Z" fill="#00BAD4"/>
					<path d="M 205.8509979248047 49.12799835205078 L 217.5540008544922 55.8849983215332 L 205.8509979248047 62.641998291015625 Z" fill="#0095C1"/>
					<path d="M 205.8509979248047 62.641998291015625 L 194.14599609375 55.8849983215332 L 205.8509979248047 49.12799835205078 Z" fill="#00BAD4"/>
					<path d="M 205.8509979248047 62.641998291015625 L 217.5540008544922 69.4000015258789 L 205.8509979248047 76.15699768066406 Z" opacity="0.7" fill="#00BAD4"/>
					<path d="M 205.8509979248047 76.15699768066406 L 194.14599609375 69.4000015258789 L 205.8509979248047 62.641998291015625 Z" fill="#00BAD4"/>
					<path d="M 205.8509979248047 76.15699768066406 L 217.5540008544922 82.91400146484375 L 205.8509979248047 89.66999816894531 Z" fill="#00BAD4"/>
					<path d="M 205.8509979248047 89.66999816894531 L 194.14599609375 82.91400146484375 L 205.8509979248047 76.15699768066406 Z" opacity="0.7" fill="#00BAD4"/>
					<path d="M 205.8509979248047 89.66999816894531 L 217.5540008544922 96.4280014038086 L 205.8509979248047 103.18499755859375 Z" opacity="0.5" fill="#00DECD"/>
					<path d="M 205.8509979248047 103.18499755859375 L 194.14599609375 96.4280014038086 L 205.8509979248047 89.6709976196289 Z" opacity="0.7" fill="#00BAD4"/>
					<path d="M 205.8509979248047 103.18499755859375 L 217.5540008544922 109.94200134277344 L 205.8509979248047 116.6989974975586 Z" opacity="0.7" fill="#00BAD4"/>
					<path d="M 205.8509979248047 116.69999694824219 L 194.14599609375 109.94200134277344 L 205.8509979248047 103.18599700927734 Z" fill="#0095C1"/>
					<path d="M 205.8509979248047 116.69999694824219 L 217.5540008544922 123.45700073242188 L 205.8509979248047 130.21299743652344 Z" fill="#00BAD4"/>
					<path d="M 205.8509979248047 130.21299743652344 L 194.14599609375 123.45700073242188 L 205.8509979248047 116.69999694824219 Z" opacity="0.5" fill="#00DECD"/>
					<path d="M 205.8509979248047 130.21299743652344 L 217.5540008544922 136.97000122070312 L 205.8509979248047 143.72799682617188 Z" opacity="0.7" fill="#00BAD4"/>
					<path d="M 205.8509979248047 143.72799682617188 L 194.14599609375 136.97000122070312 L 205.8509979248047 130.21299743652344 Z" fill="#00BAD4"/>
					<path d="M 205.8509979248047 143.72799682617188 L 217.5540008544922 150.48500061035156 L 205.8509979248047 157.24200439453125 Z" opacity="0.5" fill="#00DECD"/>
					<path d="M 205.8509979248047 157.24200439453125 L 194.14599609375 150.48500061035156 L 205.8509979248047 143.72799682617188 Z" fill="#00BAD4"/>
					<path d="M 205.8509979248047 157.24200439453125 L 217.5540008544922 164 L 205.8509979248047 170.75599670410156 Z" opacity="0.7" fill="#00BAD4"/>
					<path d="M 205.8509979248047 170.75599670410156 L 194.14599609375 164 L 205.8509979248047 157.2429962158203 Z" fill="#00BAD4"/>
					<path opacity="0.5" fill="#00DECD" d="M205.851,170.756"/>
					<path opacity="0.7" fill="#00BAD4" d="M205.851,170.756"/>
					<path opacity="0.2" fill="#00DECD" d="M194.153-11.686"/>
					<path fill="#00BAD4" d="M194.153-11.685"/>
					<path d="M 194.1529998779297 -11.6850004196167 L 205.8560028076172 -4.928999900817871 L 194.1529998779297 1.8289999961853027 Z" opacity="0.5" fill="#00DECD"/>
					<path d="M 194.1529998779297 1.8289999961853027 L 182.44900512695312 -4.927999973297119 L 194.1529998779297 -11.6850004196167 Z" fill="#00BAD4"/>
					<path d="M 194.1529998779297 1.8289999961853027 L 205.8560028076172 8.585000038146973 L 194.1529998779297 15.342000007629395 Z" opacity="0.7" fill="#00BAD4"/>
					<path d="M 194.1529998779297 15.342000007629395 L 182.44900512695312 8.586000442504883 L 194.1529998779297 1.8289999961853027 Z" fill="#00BAD4"/>
					<path d="M 194.1529998779297 15.342000007629395 L 205.8560028076172 22.100000381469727 L 194.1529998779297 28.85700035095215 Z" opacity="0.7" fill="#00BAD4"/>
					<path d="M 194.1529998779297 28.85700035095215 L 182.44900512695312 22.100000381469727 L 194.1529998779297 15.343000411987305 Z" opacity="0.5" fill="#00DECD"/>
					<path d="M 194.1529998779297 28.85700035095215 L 205.8560028076172 35.61399841308594 L 194.1529998779297 42.37099838256836 Z" opacity="0.7" fill="#00BAD4"/>
					<path d="M 194.1529998779297 42.37099838256836 L 182.44900512695312 35.6150016784668 L 194.1529998779297 28.85700035095215 Z" opacity="0.5" fill="#00DECD"/>
					<path d="M 194.1529998779297 42.37099838256836 L 205.8560028076172 49.12799835205078 L 194.1529998779297 55.8849983215332 Z" opacity="0.7" fill="#00BAD4"/>
					<path d="M 194.1529998779297 55.8849983215332 L 182.44900512695312 49.12799835205078 L 194.1529998779297 42.37200164794922 Z" fill="#00BAD4"/>
					<path d="M 194.1529998779297 55.8849983215332 L 205.8560028076172 62.641998291015625 L 194.1529998779297 69.4000015258789 Z" fill="#0095C1"/>
					<path d="M 194.1529998779297 69.4000015258789 L 182.44900512695312 62.643001556396484 L 194.1529998779297 55.88600158691406 Z" fill="#00BAD4"/>
					<path d="M 194.1529998779297 69.4000015258789 L 205.8560028076172 76.15699768066406 L 194.1529998779297 82.91400146484375 Z" opacity="0.5" fill="#00DECD"/>
					<path d="M 194.1529998779297 82.91500091552734 L 182.44900512695312 76.15699768066406 L 194.1529998779297 69.4000015258789 Z" fill="#00BAD4"/>
					<path d="M 194.1529998779297 82.91500091552734 L 205.8560028076172 89.66999816894531 L 194.1529998779297 96.4280014038086 Z" fill="#00BAD4"/>
					<path d="M 194.1529998779297 96.4280014038086 L 182.44900512695312 89.6709976196289 L 194.1529998779297 82.91500091552734 Z" fill="#00BAD4"/>
					<path d="M 194.1529998779297 96.4280014038086 L 205.8560028076172 103.18499755859375 L 194.1529998779297 109.94200134277344 Z" fill="#00BAD4"/>
					<path d="M 194.1529998779297 109.94300079345703 L 182.44900512695312 103.18599700927734 L 194.1529998779297 96.4280014038086 Z" fill="#00BAD4"/>
					<path d="M 194.1529998779297 109.94300079345703 L 205.8560028076172 116.69999694824219 L 194.1529998779297 123.45700073242188 Z" fill="#00BAD4"/>
					<path d="M 194.1529998779297 123.45700073242188 L 182.44900512695312 116.69999694824219 L 194.1529998779297 109.94300079345703 Z" fill="#00BAD4"/>
					<path d="M 194.1529998779297 123.45700073242188 L 205.8560028076172 130.21299743652344 L 194.1529998779297 136.97000122070312 Z" opacity="0.7" fill="#00BAD4"/>
					<path d="M 194.1529998779297 136.97000122070312 L 182.44900512695312 130.21400451660156 L 194.1529998779297 123.45700073242188 Z" opacity="0.7" fill="#00BAD4"/>
					<path d="M 194.1529998779297 136.97000122070312 L 205.8560028076172 143.72799682617188 L 194.1529998779297 150.48500061035156 Z" opacity="0.5" fill="#00DECD"/>
					<path d="M 194.1529998779297 150.48599243164062 L 205.8560028076172 157.24200439453125 L 194.1529998779297 164 Z" opacity="0.7" fill="#00BAD4"/>
					<path d="M 194.1529998779297 164 L 182.44900512695312 157.2429962158203 L 194.1529998779297 150.48599243164062 Z" fill="#00BAD4"/>
					<path d="M 194.153 164 L 205.856003 170.755997" opacity="0.5" fill="#00DECD"/>
					<path d="M 194.153 -11.686 L 182.449005 -4.929" opacity="0.7" fill="#00BAD4"/>
					<path d="M 182.449005 -4.929 L 170.746002 -11.686" fill="#00BAD4"/>
					<path d="M 182.44900512695312 -4.928999900817871 L 194.1529998779297 1.8289999961853027 L 182.44900512695312 8.583999633789062 Z" opacity="0.7" fill="#00BAD4"/>
					<path d="M 182.44900512695312 8.585000038146973 L 170.74600219726562 1.8289999961853027 L 182.44900512695312 -4.927999973297119 Z" fill="#00BAD4"/>
					<path d="M 182.44900512695312 8.585000038146973 L 194.1529998779297 15.342000007629395 L 182.44900512695312 22.099000930786133 Z" opacity="0.7" fill="#00BAD4"/>
					<path d="M 182.44900512695312 22.100000381469727 L 170.74600219726562 15.342000007629395 L 182.44900512695312 8.585000038146973 Z" fill="#00BAD4"/>
					<path d="M 182.44900512695312 22.100000381469727 L 194.1529998779297 28.85700035095215 L 182.44900512695312 35.61399841308594 Z" fill="#0095C1"/>
					<path d="M 182.44900512695312 35.61399841308594 L 170.74600219726562 28.85700035095215 L 182.44900512695312 22.100000381469727 Z" fill="#00BAD4"/>
					<path d="M 182.44900512695312 35.61399841308594 L 194.1529998779297 42.37099838256836 L 182.44900512695312 49.12699890136719 Z" opacity="0.7" fill="#00BAD4"/>
					<path d="M 182.44900512695312 49.12799835205078 L 170.74600219726562 42.37099838256836 L 182.44900512695312 35.61399841308594 Z" opacity="0.5" fill="#00DECD"/>
					<path d="M 182.44900512695312 49.12799835205078 L 194.1529998779297 55.8849983215332 L 182.44900512695312 62.641998291015625 Z" opacity="0.5" fill="#00DECD"/>
					<path d="M 182.44900512695312 62.641998291015625 L 170.74600219726562 55.8849983215332 L 182.44900512695312 49.12799835205078 Z" fill="#00BAD4"/>
					<path d="M 182.44900512695312 62.641998291015625 L 194.1529998779297 69.4000015258789 L 182.44900512695312 76.15699768066406 Z" opacity="0.7" fill="#00BAD4"/>
					<path d="M 182.44900512695312 76.15699768066406 L 170.74600219726562 69.4000015258789 L 182.44900512695312 62.641998291015625 Z" fill="#00BAD4"/>
					<path d="M 182.44900512695312 76.15699768066406 L 194.1529998779297 82.91400146484375 L 182.44900512695312 89.66999816894531 Z" fill="#0095C1"/>
					<path d="M 182.44900512695312 89.66999816894531 L 170.74600219726562 82.91400146484375 L 182.44900512695312 76.15699768066406 Z" opacity="0.7" fill="#00BAD4"/>
					<path d="M 182.44900512695312 89.66999816894531 L 194.1529998779297 96.4280014038086 L 182.44900512695312 103.18499755859375 Z" opacity="0.7" fill="#00BAD4"/>
					<path d="M 182.44900512695312 103.18499755859375 L 170.74600219726562 96.4280014038086 L 182.44900512695312 89.6709976196289 Z" fill="#0095C1"/>
					<path d="M 182.44900512695312 103.18499755859375 L 194.1529998779297 109.94200134277344 L 182.44900512695312 116.6989974975586 Z" opacity="0.7" fill="#00BAD4"/>
					<path d="M 182.44900512695312 116.69999694824219 L 170.74600219726562 109.94200134277344 L 182.44900512695312 103.18599700927734 Z" fill="#00BAD4"/>
					<path d="M 182.44900512695312 130.21299743652344 L 170.74600219726562 123.45700073242188 L 182.44900512695312 116.69999694824219 Z" fill="#00BAD4"/>
					<path d="M 182.44900512695312 130.21299743652344 L 194.1529998779297 136.97000122070312 L 182.44900512695312 143.72799682617188 Z" fill="#00BAD4"/>
					<path d="M 182.44900512695312 143.72799682617188 L 170.74600219726562 136.97000122070312 L 182.44900512695312 130.21299743652344 Z" opacity="0.5" fill="#00DECD"/>
					<path d="M 182.44900512695312 143.72799682617188 L 194.1529998779297 150.48500061035156 L 182.44900512695312 157.24200439453125 Z" opacity="0.7" fill="#00BAD4"/>
					<path d="M 182.44900512695312 157.24200439453125 L 170.74600219726562 150.48500061035156 L 182.44900512695312 143.72799682617188 Z" opacity="0.2" fill="#00DECD"/>
					<path d="M 182.44900512695312 157.24200439453125 L 194.1529998779297 164 L 182.44900512695312 170.75599670410156 Z" opacity="0.5" fill="#00DECD"/>
					<path fill="#00BAD4" d="M182.449,170.756"/>
					<path opacity="0.7" fill="#00BAD4" d="M170.751-11.686"/>
					<path d="M 170.75100708007812 1.8289999961853027 L 159.0469970703125 -4.927999973297119 L 170.75100708007812 -11.6850004196167 Z" opacity="0.5" fill="#00DECD"/>
					<path d="M 170.75100708007812 1.8289999961853027 L 182.45399475097656 8.585000038146973 L 170.75100708007812 15.342000007629395 Z" opacity="0.7" fill="#00BAD4"/>
					<path d="M 170.75100708007812 15.342000007629395 L 159.0469970703125 8.586000442504883 L 170.75100708007812 1.8289999961853027 Z" opacity="0.2" fill="#00DECD"/>
					<path d="M 170.75100708007812 15.342000007629395 L 182.45399475097656 22.100000381469727 L 170.75100708007812 28.85700035095215 Z" opacity="0.5" fill="#00DECD"/>
					<path d="M 170.75100708007812 28.85700035095215 L 159.0469970703125 22.100000381469727 L 170.75100708007812 15.343000411987305 Z" opacity="0.7" fill="#00BAD4"/>
					<path d="M 170.75100708007812 28.85700035095215 L 182.45399475097656 35.61399841308594 L 170.75100708007812 42.37099838256836 Z" opacity="0.7" fill="#00BAD4"/>
					<path d="M 170.75100708007812 42.37099838256836 L 159.0469970703125 35.6150016784668 L 170.75100708007812 28.85700035095215 Z" opacity="0.7" fill="#00BAD4"/>
					<path d="M 170.75100708007812 42.37099838256836 L 182.45399475097656 49.12799835205078 L 170.75100708007812 55.8849983215332 Z" opacity="0.7" fill="#00BAD4"/>
					<path d="M 170.75100708007812 55.8849983215332 L 159.0469970703125 49.12799835205078 L 170.75100708007812 42.37200164794922 Z" opacity="0.7" fill="#00BAD4"/>
					<path d="M 170.75100708007812 55.8849983215332 L 182.45399475097656 62.641998291015625 L 170.75100708007812 69.4000015258789 Z" opacity="0.5" fill="#00DECD"/>
					<path d="M 170.75100708007812 69.4000015258789 L 159.0469970703125 62.643001556396484 L 170.75100708007812 55.88600158691406 Z" opacity="0.7" fill="#00BAD4"/>
					<path d="M 170.75100708007812 69.4000015258789 L 182.45399475097656 76.15699768066406 L 170.75100708007812 82.91400146484375 Z" opacity="0.5" fill="#00DECD"/>
					<path d="M 170.75100708007812 82.91500091552734 L 159.0469970703125 76.15699768066406 L 170.75100708007812 69.4000015258789 Z" opacity="0.2" fill="#00DECD"/>
					<path d="M 170.75100708007812 82.91500091552734 L 182.45399475097656 89.66999816894531 L 170.75100708007812 96.4280014038086 Z" fill="#00BAD4"/>
					<path d="M 170.75100708007812 96.4280014038086 L 159.0469970703125 89.6709976196289 L 170.75100708007812 82.91500091552734 Z" opacity="0.7" fill="#00BAD4"/>
					<path d="M 170.75100708007812 96.4280014038086 L 182.45399475097656 103.18499755859375 L 170.75100708007812 109.94200134277344 Z" fill="#00BAD4"/>
					<path d="M 170.75100708007812 109.94300079345703 L 159.0469970703125 103.18599700927734 L 170.75100708007812 96.4280014038086 Z" opacity="0.7" fill="#00BAD4"/>
					<path d="M 170.75100708007812 109.94300079345703 L 182.45399475097656 116.69999694824219 L 170.75100708007812 123.45700073242188 Z" opacity="0.5" fill="#00DECD"/>
					<path d="M 170.75100708007812 123.45700073242188 L 182.45399475097656 130.21299743652344 L 170.75100708007812 136.97000122070312 Z" fill="#00BAD4"/>
					<path d="M 170.75100708007812 136.97000122070312 L 159.0469970703125 130.21400451660156 L 170.75100708007812 123.45700073242188 Z" opacity="0.7" fill="#00BAD4"/>
					<path d="M 170.75100708007812 136.97000122070312 L 182.45399475097656 143.72799682617188 L 170.75100708007812 150.48500061035156 Z" fill="#00BAD4"/>
					<path d="M 170.75100708007812 150.48599243164062 L 182.45399475097656 157.24200439453125 L 170.75100708007812 164 Z" fill="#00BAD4"/>
					<path d="M 170.75100708007812 164 L 159.0469970703125 157.2429962158203 L 170.75100708007812 150.48599243164062 Z" opacity="0.2" fill="#00DECD"/>
					<path d="M 170.751007 164 L 182.453995 170.755997" fill="#00BAD4"/>
					<path d="M 159.046997 170.755997 L 170.751007 164" opacity="0.7" fill="#00BAD4"/>
					<path d="M 170.751007 -11.686 L 159.046997 -4.929" opacity="0.7" fill="#00BAD4"/>
					<path d="M 159.046997 -4.929 L 147.343994 -11.686" opacity="0.5" fill="#00DECD"/>
					<path d="M 159.0469970703125 -4.928999900817871 L 170.75100708007812 1.8289999961853027 L 159.0469970703125 8.583999633789062 Z" opacity="0.7" fill="#00BAD4"/>
					<path d="M 159.0469970703125 8.585000038146973 L 170.75100708007812 15.342000007629395 L 159.0469970703125 22.099000930786133 Z" opacity="0.5" fill="#00DECD"/>
					<path d="M 159.0469970703125 22.100000381469727 L 147.343994140625 15.342000007629395 L 159.0469970703125 8.585000038146973 Z" opacity="0.7" fill="#00BAD4"/>
					<path d="M 159.0469970703125 22.100000381469727 L 170.75100708007812 28.85700035095215 L 159.0469970703125 35.61399841308594 Z" opacity="0.5" fill="#00DECD"/>
					<path d="M 159.0469970703125 35.61399841308594 L 147.343994140625 28.85700035095215 L 159.0469970703125 22.100000381469727 Z" opacity="0.5" fill="#00DECD"/>
					<path d="M 159.0469970703125 35.61399841308594 L 170.75100708007812 42.37099838256836 L 159.0469970703125 49.12699890136719 Z" opacity="0.2" fill="#00DECD"/>
					<path d="M 159.0469970703125 49.12799835205078 L 147.343994140625 42.37099838256836 L 159.0469970703125 35.61399841308594 Z" opacity="0.7" fill="#00BAD4"/>
					<path d="M 159.0469970703125 49.12799835205078 L 170.75100708007812 55.8849983215332 L 159.0469970703125 62.641998291015625 Z" fill="#00BAD4"/>
					<path d="M 159.0469970703125 62.641998291015625 L 147.343994140625 55.8849983215332 L 159.0469970703125 49.12799835205078 Z" opacity="0.7" fill="#00BAD4"/>
					<path d="M 159.0469970703125 62.641998291015625 L 170.75100708007812 69.4000015258789 L 159.0469970703125 76.15699768066406 Z" opacity="0.7" fill="#00BAD4"/>
					<path d="M 159.0469970703125 76.15699768066406 L 147.343994140625 69.4000015258789 L 159.0469970703125 62.641998291015625 Z" opacity="0.7" fill="#00BAD4"/>
					<path d="M 159.0469970703125 76.15699768066406 L 170.75100708007812 82.91400146484375 L 159.0469970703125 89.66999816894531 Z" opacity="0.7" fill="#00BAD4"/>
					<path d="M 159.0469970703125 89.66999816894531 L 147.343994140625 82.91400146484375 L 159.0469970703125 76.15699768066406 Z" opacity="0.2" fill="#00DECD"/>
					<path d="M 159.0469970703125 89.66999816894531 L 170.75100708007812 96.4280014038086 L 159.0469970703125 103.18499755859375 Z" opacity="0.5" fill="#00DECD"/>
					<path d="M 159.0469970703125 103.18499755859375 L 170.75100708007812 109.94200134277344 L 159.0469970703125 116.6989974975586 Z" opacity="0.7" fill="#00BAD4"/>
					<path d="M 159.0469970703125 116.69999694824219 L 147.343994140625 109.94200134277344 L 159.0469970703125 103.18599700927734 Z" opacity="0.5" fill="#00DECD"/>
					<path d="M 159.0469970703125 130.21299743652344 L 147.343994140625 123.45700073242188 L 159.0469970703125 116.69999694824219 Z" opacity="0.7" fill="#00BAD4"/>
					<path d="M 159.0469970703125 130.21299743652344 L 170.75100708007812 136.97000122070312 L 159.0469970703125 143.72799682617188 Z" opacity="0.5" fill="#00DECD"/>
					<path d="M 159.0469970703125 143.72799682617188 L 147.343994140625 136.97000122070312 L 159.0469970703125 130.21299743652344 Z" opacity="0.7" fill="#00BAD4"/>
					<path d="M 159.0469970703125 143.72799682617188 L 170.75100708007812 150.48500061035156 L 159.0469970703125 157.24200439453125 Z" opacity="0.7" fill="#00BAD4"/>
					<path d="M 159.0469970703125 157.24200439453125 L 147.343994140625 150.48500061035156 L 159.0469970703125 143.72799682617188 Z" opacity="0.5" fill="#00DECD"/>
					<path d="M 159.0469970703125 170.75599670410156 L 147.343994140625 164 L 159.0469970703125 157.2429962158203 Z" opacity="0.7" fill="#00BAD4"/>
					<path d="M 147.33799743652344 -11.6850004196167 L 159.04200744628906 -4.928999900817871 L 147.33799743652344 1.8289999961853027 Z" opacity="0.2" fill="#00DECD"/>
					<path d="M 147.33799743652344 1.8289999961853027 L 159.04200744628906 8.585000038146973 L 147.33799743652344 15.342000007629395 Z" opacity="0.7" fill="#00BAD4"/>
					<path d="M 147.33799743652344 15.342000007629395 L 159.04200744628906 22.100000381469727 L 147.33799743652344 28.85700035095215 Z" opacity="0.2" fill="#00DECD"/>
					<path d="M 147.33799743652344 28.85700035095215 L 135.63499450683594 22.100000381469727 L 147.33799743652344 15.343000411987305 Z" opacity="0.7" fill="#00BAD4"/>
					<path d="M 147.33799743652344 42.37099838256836 L 135.63499450683594 35.6150016784668 L 147.33799743652344 28.85700035095215 Z" opacity="0.5" fill="#00DECD"/>
					<path d="M 147.33799743652344 42.37099838256836 L 159.04200744628906 49.12799835205078 L 147.33799743652344 55.8849983215332 Z" opacity="0.2" fill="#00DECD"/>
					<path d="M 147.33799743652344 55.8849983215332 L 135.63499450683594 49.12799835205078 L 147.33799743652344 42.37200164794922 Z" opacity="0.5" fill="#00DECD"/>
					<path d="M 147.33799743652344 55.8849983215332 L 159.04200744628906 62.641998291015625 L 147.33799743652344 69.4000015258789 Z" opacity="0.2" fill="#00DECD"/>
					<path d="M 147.33799743652344 69.4000015258789 L 135.63499450683594 62.643001556396484 L 147.33799743652344 55.88600158691406 Z" opacity="0.5" fill="#00DECD"/>
					<path d="M 147.33799743652344 69.4000015258789 L 159.04200744628906 76.15699768066406 L 147.33799743652344 82.91400146484375 Z" opacity="0.5" fill="#00DECD"/>
					<path d="M 147.33799743652344 82.91500091552734 L 135.63499450683594 76.15699768066406 L 147.33799743652344 69.4000015258789 Z" opacity="0.2" fill="#00DECD"/>
					<path d="M 147.33799743652344 82.91500091552734 L 159.04200744628906 89.66999816894531 L 147.33799743652344 96.4280014038086 Z" opacity="0.7" fill="#00BAD4"/>
					<path d="M 147.33799743652344 96.4280014038086 L 159.04200744628906 103.18499755859375 L 147.33799743652344 109.94200134277344 Z" opacity="0.2" fill="#00DECD"/>
					<path d="M 147.33799743652344 109.94300079345703 L 135.63499450683594 103.18599700927734 L 147.33799743652344 96.4280014038086 Z" opacity="0.7" fill="#00BAD4"/>
					<path d="M 147.33799743652344 123.45700073242188 L 135.63499450683594 116.69999694824219 L 147.33799743652344 109.94300079345703 Z" opacity="0.5" fill="#00DECD"/>
					<path d="M 147.33799743652344 123.45700073242188 L 159.04200744628906 130.21299743652344 L 147.33799743652344 136.97000122070312 Z" opacity="0.2" fill="#00DECD"/>
					<path d="M 147.337997 -11.686 L 135.634995 -4.929" opacity="0.7" fill="#00BAD4"/>
					<path d="M 135.63499450683594 -4.928999900817871 L 147.33799743652344 1.8289999961853027 L 135.63499450683594 8.583999633789062 Z" opacity="0.7" fill="#00BAD4"/>
					<path d="M 135.63499450683594 8.585000038146973 L 147.33799743652344 15.342000007629395 L 135.63499450683594 22.099000930786133 Z" opacity="0.5" fill="#00DECD"/>
					<path d="M 135.63499450683594 22.100000381469727 L 147.33799743652344 28.85700035095215 L 135.63499450683594 35.61399841308594 Z" opacity="0.2" fill="#00DECD"/>
					<path d="M 135.63499450683594 49.12799835205078 L 123.93099975585938 42.37099838256836 L 135.63499450683594 35.61399841308594 Z" opacity="0.2" fill="#00DECD"/>
					<path d="M 135.63499450683594 49.12799835205078 L 147.33799743652344 55.8849983215332 L 135.63499450683594 62.641998291015625 Z" opacity="0.2" fill="#00DECD"/>
					<path d="M 135.63499450683594 62.641998291015625 L 147.33799743652344 69.4000015258789 L 135.63499450683594 76.15699768066406 Z" opacity="0.2" fill="#00DECD"/>
					<path d="M 135.63499450683594 76.15699768066406 L 123.93099975585938 69.4000015258789 L 135.63499450683594 62.641998291015625 Z" opacity="0.5" fill="#00DECD"/>
					<path d="M 135.63499450683594 76.15699768066406 L 147.33799743652344 82.91400146484375 L 135.63499450683594 89.66999816894531 Z" opacity="0.5" fill="#00DECD"/>
					<path d="M 135.63499450683594 89.66999816894531 L 123.93099975585938 82.91400146484375 L 135.63499450683594 76.15699768066406 Z" opacity="0.7" fill="#00BAD4"/>
					<path d="M 135.63499450683594 89.66999816894531 L 147.33799743652344 96.4280014038086 L 135.63499450683594 103.18499755859375 Z" opacity="0.2" fill="#00DECD"/>
					<path d="M 135.63499450683594 103.18499755859375 L 123.93099975585938 96.4280014038086 L 135.63499450683594 89.6709976196289 Z" opacity="0.7" fill="#00BAD4"/>
					<path d="M 135.63499450683594 116.69999694824219 L 123.93099975585938 109.94200134277344 L 135.63499450683594 103.18599700927734 Z" opacity="0.5" fill="#00DECD"/>
					<path d="M 135.63499450683594 130.21299743652344 L 123.93099975585938 123.45700073242188 L 135.63499450683594 116.69999694824219 Z" opacity="0.2" fill="#00DECD"/>
					<path d="M 135.63499450683594 130.21299743652344 L 147.33799743652344 136.97000122070312 L 135.63499450683594 143.72799682617188 Z" opacity="0.5" fill="#00DECD"/>
					<path d="M 123.9219970703125 15.342000007629395 L 112.21900177001953 8.586000442504883 L 123.9219970703125 1.8289999961853027 Z" opacity="0.7" fill="#00BAD4"/>
					<path d="M 123.9219970703125 15.342000007629395 L 135.62600708007812 22.100000381469727 L 123.9219970703125 28.85700035095215 Z" opacity="0.5" fill="#00DECD"/>
					<path d="M 123.9219970703125 28.85700035095215 L 135.62600708007812 35.61399841308594 L 123.9219970703125 42.37099838256836 Z" opacity="0.5" fill="#00DECD"/>
					<path d="M 123.9219970703125 42.37099838256836 L 112.21900177001953 35.6150016784668 L 123.9219970703125 28.85700035095215 Z" opacity="0.2" fill="#00DECD"/>
					<path d="M 123.9219970703125 42.37099838256836 L 135.62600708007812 49.12799835205078 L 123.9219970703125 55.8849983215332 Z" opacity="0.5" fill="#00DECD"/>
					<path d="M 123.9219970703125 55.8849983215332 L 135.62600708007812 62.641998291015625 L 123.9219970703125 69.4000015258789 Z" opacity="0.2" fill="#00DECD"/>
					<path d="M 123.9219970703125 82.91500091552734 L 112.21900177001953 76.15699768066406 L 123.9219970703125 69.4000015258789 Z" opacity="0.5" fill="#00DECD"/>
					<path d="M 123.9219970703125 82.91500091552734 L 135.62600708007812 89.66999816894531 L 123.9219970703125 96.4280014038086 Z" opacity="0.5" fill="#00DECD"/>
					<path d="M 123.9219970703125 96.4280014038086 L 112.21900177001953 89.6709976196289 L 123.9219970703125 82.91500091552734 Z" opacity="0.5" fill="#00DECD"/>
					<path d="M 112.21900177001953 49.12799835205078 L 100.51499938964844 42.37099838256836 L 112.21900177001953 35.61399841308594 Z" opacity="0.5" fill="#00DECD"/>
					<path d="M 112.21900177001953 49.12799835205078 L 123.9219970703125 55.8849983215332 L 112.21900177001953 62.641998291015625 Z" opacity="0.5" fill="#00DECD"/>
					<path d="M 112.21900177001953 62.641998291015625 L 100.51499938964844 55.8849983215332 L 112.21900177001953 49.12799835205078 Z" opacity="0.2" fill="#00DECD"/>
					<path d="M 112.21900177001953 62.641998291015625 L 123.9219970703125 69.4000015258789 L 112.21900177001953 76.15699768066406 Z" opacity="0.2" fill="#00DECD"/>
					<path d="M 112.21900177001953 89.66999816894531 L 100.51499938964844 82.91400146484375 L 112.21900177001953 76.15699768066406 Z" opacity="0.5" fill="#00DECD"/>
					<path d="M 112.21900177001953 116.69999694824219 L 100.51499938964844 109.94200134277344 L 112.21900177001953 103.18599700927734 Z" opacity="0.2" fill="#00DECD"/>
				</g>
			</g>
		</g>
		<g>
			<defs>
				<path d="M 0 0 H 216 V 151.199997 H 0 V 0 Z" id="SVGID_3_"/>
			</defs>
			<clipPath id="SVGID_4_">
				<use overflow="visible" xlink:href="#SVGID_3_"/>
			</clipPath>
			<g clip-path="url(#SVGID_4_)">
				<g>
					<path d="M -13.264 156.128006 L -1.56 162.884995" fill="#0095C1"/>
					<path d="M -13.263999938964844 142.61399841308594 L -1.559999942779541 149.37100219726562 L -13.263999938964844 156.1269989013672 Z" fill="#0095C1"/>
					<path d="M -13.263999938964844 129.0989990234375 L -1.559999942779541 135.85699462890625 L -13.263999938964844 142.61399841308594 Z" fill="#00BAD4"/>
					<path d="M -13.263999938964844 115.58499908447266 L -1.559999942779541 122.34200286865234 L -13.263999938964844 129.0989990234375 Z" fill="#00BAD4"/>
					<path d="M -13.263999938964844 102.07099914550781 L -1.559999942779541 108.8290023803711 L -13.263999938964844 115.58499908447266 Z" fill="#0095C1"/>
					<path d="M -13.263999938964844 88.55699920654297 L -1.559999942779541 95.31400299072266 L -13.263999938964844 102.07099914550781 Z" fill="#00BAD4"/>
					<path d="M -13.263999938964844 75.04299926757812 L -1.559999942779541 81.79900360107422 L -13.263999938964844 88.55699920654297 Z" fill="#00BAD4"/>
					<path d="M -13.263999938964844 61.52899932861328 L -1.559999942779541 68.28600311279297 L -13.263999938964844 75.04299926757812 Z" fill="#00BAD4"/>
					<path d="M -13.263999938964844 48.01499938964844 L -1.559999942779541 54.770999908447266 L -13.263999938964844 61.52799987792969 Z" fill="#00BAD4"/>
					<path d="M -13.263999938964844 34.5 L -1.559999942779541 41.257999420166016 L -13.263999938964844 48.013999938964844 Z" fill="#00BAD4"/>
					<path d="M -13.263999938964844 20.986000061035156 L -1.559999942779541 27.743000030517578 L -13.263999938964844 34.5 Z" fill="#00BAD4"/>
					<path d="M -13.263999938964844 7.4720001220703125 L -1.559999942779541 14.229000091552734 L -13.263999938964844 20.986000061035156 Z" fill="#0095C1"/>
					<path d="M -13.263999938964844 -6.041999816894531 L -1.559999942779541 0.7149999737739563 L -13.263999938964844 7.4720001220703125 Z" fill="#0095C1"/>
					<path d="M -13.262999534606934 -19.55699920654297 L -1.559999942779541 -12.800000190734863 L -13.263999938964844 -6.043000221252441 Z" fill="#00BAD4"/>
					<path fill="#00BAD4" d="M-13.263-19.557"/>
					<path opacity="0.5" fill="#00DECD" d="M-1.554,162.885"/>
					<path fill="#0095C1" d="M-1.554,162.884"/>
					<path d="M -1.5540000200271606 162.88400268554688 L -13.258000373840332 156.1280059814453 L -1.5540000200271606 149.37100219726562 Z" fill="#00BAD4"/>
					<path d="M -1.5540000200271606 149.37100219726562 L 10.14900016784668 156.1269989013672 L -1.5540000200271606 162.88400268554688 Z" opacity="0.5" fill="#00DECD"/>
					<path d="M -1.5540000200271606 149.37100219726562 L -13.258000373840332 142.61399841308594 L -1.5540000200271606 135.85699462890625 Z" opacity="0.7" fill="#00BAD4"/>
					<path d="M -1.5540000200271606 135.85699462890625 L 10.14900016784668 142.61300659179688 L -1.5540000200271606 149.37100219726562 Z" fill="#00BAD4"/>
					<path d="M -1.5540000200271606 135.85699462890625 L -13.258000373840332 129.0989990234375 L -1.5540000200271606 122.34200286865234 Z" opacity="0.7" fill="#00BAD4"/>
					<path d="M -1.5540000200271606 122.34200286865234 L 10.14900016784668 129.0989990234375 L -1.5540000200271606 135.8560028076172 Z" fill="#0095C1"/>
					<path d="M -1.5540000200271606 122.34200286865234 L -13.258000373840332 115.58499908447266 L -1.5540000200271606 108.8290023803711 Z" opacity="0.7" fill="#00BAD4"/>
					<path d="M -1.5540000200271606 108.8290023803711 L 10.14900016784668 115.58399963378906 L -1.5540000200271606 122.34200286865234 Z" fill="#00BAD4"/>
					<path d="M -1.5540000200271606 108.8290023803711 L -13.258000373840332 102.07099914550781 L -1.5540000200271606 95.31400299072266 Z" opacity="0.7" fill="#00BAD4"/>
					<path d="M -1.5540000200271606 95.31400299072266 L 10.14900016784668 102.07099914550781 L -1.5540000200271606 108.8280029296875 Z" fill="#00BAD4"/>
					<path d="M -1.5540000200271606 95.31400299072266 L -13.258000373840332 88.55699920654297 L -1.5540000200271606 81.79900360107422 Z" fill="#0095C1"/>
					<path d="M -1.5540000200271606 81.79900360107422 L 10.14900016784668 88.55599975585938 L -1.5540000200271606 95.31300354003906 Z" fill="#00BAD4"/>
					<path d="M -1.5540000200271606 81.79900360107422 L -13.258000373840332 75.04299926757812 L -1.5540000200271606 68.28600311279297 Z" opacity="0.7" fill="#00BAD4"/>
					<path d="M -1.5540000200271606 68.28500366210938 L 10.14900016784668 75.04299926757812 L -1.5540000200271606 81.79900360107422 Z" fill="#00BAD4"/>
					<path d="M -1.5540000200271606 68.28500366210938 L -13.258000373840332 61.52899932861328 L -1.5540000200271606 54.770999908447266 Z" opacity="0.5" fill="#00DECD"/>
					<path d="M -1.5540000200271606 54.770999908447266 L 10.14900016784668 61.52799987792969 L -1.5540000200271606 68.28500366210938 Z" opacity="0.7" fill="#00BAD4"/>
					<path d="M -1.5540000200271606 54.770999908447266 L -13.258000373840332 48.01499938964844 L -1.5540000200271606 41.257999420166016 Z" opacity="0.7" fill="#00BAD4"/>
					<path d="M -1.5540000200271606 41.25699996948242 L 10.14900016784668 48.013999938964844 L -1.5540000200271606 54.770999908447266 Z" fill="#00BAD4"/>
					<path d="M -1.5540000200271606 41.25699996948242 L -13.258000373840332 34.5 L -1.5540000200271606 27.743000030517578 Z" fill="#0095C1"/>
					<path d="M -1.5540000200271606 27.743000030517578 L 10.14900016784668 34.5 L -1.5540000200271606 41.25699996948242 Z" opacity="0.5" fill="#00DECD"/>
					<path d="M -1.5540000200271606 27.743000030517578 L -13.258000373840332 20.986000061035156 L -1.5540000200271606 14.229000091552734 Z" opacity="0.7" fill="#00BAD4"/>
					<path d="M -1.5540000200271606 14.229000091552734 L 10.14900016784668 20.985000610351562 L -1.5540000200271606 27.743000030517578 Z" opacity="0.5" fill="#00DECD"/>
					<path d="M -1.5540000200271606 14.229000091552734 L -13.258000373840332 7.4720001220703125 L -1.5540000200271606 0.7149999737739563 Z" opacity="0.7" fill="#00BAD4"/>
					<path d="M -1.5540000200271606 0.7139999866485596 L 10.14900016784668 7.4720001220703125 L -1.5540000200271606 14.229000091552734 Z" fill="#00BAD4"/>
					<path d="M -1.5540000200271606 0.7139999866485596 L -13.258000373840332 -6.041999816894531 L -1.5540000200271606 -12.800000190734863 Z" fill="#00BAD4"/>
					<path d="M -1.554 -12.8 L -13.258 -19.556999" fill="#0095C1"/>
					<path d="M 10.149 -19.556999 L -1.554 -12.8" fill="#00BAD4"/>
					<path d="M -1.554 162.884995 L 10.149 156.128006" opacity="0.7" fill="#00BAD4"/>
					<path d="M 10.149 156.128006 L 21.854 162.884995" fill="#00BAD4"/>
					<path d="M 10.14900016784668 156.1280059814453 L -1.5540000200271606 149.37100219726562 L 10.14900016784668 142.61500549316406 Z" opacity="0.2" fill="#00DECD"/>
					<path d="M 10.14900016784668 142.61399841308594 L 21.854000091552734 149.37100219726562 L 10.14900016784668 156.1269989013672 Z" fill="#00BAD4"/>
					<path d="M 10.14900016784668 142.61399841308594 L -1.5540000200271606 135.85699462890625 L 10.14900016784668 129.10000610351562 Z" opacity="0.5" fill="#00DECD"/>
					<path d="M 10.14900016784668 129.0989990234375 L 21.854000091552734 135.85699462890625 L 10.14900016784668 142.61399841308594 Z" fill="#00BAD4"/>
					<path d="M 10.14900016784668 129.0989990234375 L -1.5540000200271606 122.34200286865234 L 10.14900016784668 115.58499908447266 Z" opacity="0.5" fill="#00DECD"/>
					<path d="M 10.14900016784668 115.58499908447266 L 21.854000091552734 122.34200286865234 L 10.14900016784668 129.0989990234375 Z" fill="#00BAD4"/>
					<path d="M 10.14900016784668 115.58499908447266 L -1.5540000200271606 108.8290023803711 L 10.14900016784668 102.0719985961914 Z" opacity="0.7" fill="#00BAD4"/>
					<path d="M 10.14900016784668 102.07099914550781 L 21.854000091552734 108.8290023803711 L 10.14900016784668 115.58499908447266 Z" fill="#00BAD4"/>
					<path d="M 10.14900016784668 102.07099914550781 L -1.5540000200271606 95.31400299072266 L 10.14900016784668 88.55699920654297 Z" fill="#0095C1"/>
					<path d="M 10.14900016784668 88.55699920654297 L 21.854000091552734 95.31400299072266 L 10.14900016784668 102.07099914550781 Z" fill="#00BAD4"/>
					<path d="M 10.14900016784668 88.55699920654297 L -1.5540000200271606 81.79900360107422 L 10.14900016784668 75.04299926757812 Z" opacity="0.7" fill="#00BAD4"/>
					<path d="M 10.14900016784668 75.04299926757812 L 21.854000091552734 81.79900360107422 L 10.14900016784668 88.55699920654297 Z" fill="#00BAD4"/>
					<path d="M 10.14900016784668 75.04299926757812 L -1.5540000200271606 68.28600311279297 L 10.14900016784668 61.52899932861328 Z" fill="#00BAD4"/>
					<path d="M 10.14900016784668 61.52899932861328 L 21.854000091552734 68.28600311279297 L 10.14900016784668 75.04299926757812 Z" opacity="0.7" fill="#00BAD4"/>
					<path d="M 10.14900016784668 61.52899932861328 L -1.5540000200271606 54.770999908447266 L 10.14900016784668 48.01499938964844 Z" opacity="0.5" fill="#00DECD"/>
					<path d="M 10.14900016784668 48.01499938964844 L 21.854000091552734 54.770999908447266 L 10.14900016784668 61.52799987792969 Z" opacity="0.7" fill="#00BAD4"/>
					<path d="M 10.14900016784668 48.01499938964844 L -1.5540000200271606 41.257999420166016 L 10.14900016784668 34.500999450683594 Z" opacity="0.7" fill="#00BAD4"/>
					<path d="M 10.14900016784668 34.5 L 21.854000091552734 41.257999420166016 L 10.14900016784668 48.013999938964844 Z" fill="#0095C1"/>
					<path d="M 10.14900016784668 34.5 L -1.5540000200271606 27.743000030517578 L 10.14900016784668 20.986000061035156 Z" fill="#00BAD4"/>
					<path d="M 10.14900016784668 20.986000061035156 L 21.854000091552734 27.743000030517578 L 10.14900016784668 34.5 Z" opacity="0.5" fill="#00DECD"/>
					<path d="M 10.14900016784668 20.986000061035156 L -1.5540000200271606 14.229000091552734 L 10.14900016784668 7.4720001220703125 Z" opacity="0.7" fill="#00BAD4"/>
					<path d="M 10.14900016784668 7.4720001220703125 L 21.854000091552734 14.229000091552734 L 10.14900016784668 20.986000061035156 Z" fill="#00BAD4"/>
					<path d="M 10.14900016784668 7.4720001220703125 L -1.5540000200271606 0.7149999737739563 L 10.14900016784668 -6.041999816894531 Z" opacity="0.5" fill="#00DECD"/>
					<path d="M 10.14900016784668 -6.041999816894531 L 21.854000091552734 0.7149999737739563 L 10.14900016784668 7.4720001220703125 Z" fill="#00BAD4"/>
					<path d="M 10.14900016784668 -6.041999816894531 L -1.5540000200271606 -12.800000190734863 L 10.14900016784668 -19.55699920654297 Z" opacity="0.7" fill="#00BAD4"/>
					<path d="M 10.14900016784668 -19.55699920654297 L 21.854000091552734 -12.800000190734863 L 10.14900016784668 -6.043000221252441 Z" fill="#00BAD4"/>
					<path opacity="0.5" fill="#00DECD" d="M10.149-19.557"/>
					<path opacity="0.7" fill="#00BAD4" d="M10.149-19.557"/>
					<path opacity="0.2" fill="#00DECD" d="M21.847,162.885"/>
					<path fill="#00BAD4" d="M21.847,162.884"/>
					<path d="M 21.847000122070312 162.88400268554688 L 10.144000053405762 156.1280059814453 L 21.847000122070312 149.37100219726562 Z" opacity="0.5" fill="#00DECD"/>
					<path d="M 21.847000122070312 149.37100219726562 L 33.55099868774414 156.1269989013672 L 21.847000122070312 162.88400268554688 Z" fill="#00BAD4"/>
					<path d="M 21.847000122070312 149.37100219726562 L 10.144000053405762 142.61399841308594 L 21.847000122070312 135.85699462890625 Z" opacity="0.7" fill="#00BAD4"/>
					<path d="M 21.847000122070312 135.85699462890625 L 33.55099868774414 142.61300659179688 L 21.847000122070312 149.37100219726562 Z" fill="#00BAD4"/>
					<path d="M 21.847000122070312 135.85699462890625 L 10.144000053405762 129.0989990234375 L 21.847000122070312 122.34200286865234 Z" opacity="0.7" fill="#00BAD4"/>
					<path d="M 21.847000122070312 122.34200286865234 L 33.55099868774414 129.0989990234375 L 21.847000122070312 135.8560028076172 Z" opacity="0.5" fill="#00DECD"/>
					<path d="M 21.847000122070312 122.34200286865234 L 10.144000053405762 115.58499908447266 L 21.847000122070312 108.8290023803711 Z" opacity="0.7" fill="#00BAD4"/>
					<path d="M 21.847000122070312 108.8290023803711 L 33.55099868774414 115.58399963378906 L 21.847000122070312 122.34200286865234 Z" opacity="0.5" fill="#00DECD"/>
					<path d="M 21.847000122070312 108.8290023803711 L 10.144000053405762 102.07099914550781 L 21.847000122070312 95.31400299072266 Z" opacity="0.7" fill="#00BAD4"/>
					<path d="M 21.847000122070312 95.31400299072266 L 33.55099868774414 102.07099914550781 L 21.847000122070312 108.8280029296875 Z" fill="#00BAD4"/>
					<path d="M 21.847000122070312 95.31400299072266 L 10.144000053405762 88.55699920654297 L 21.847000122070312 81.79900360107422 Z" fill="#0095C1"/>
					<path d="M 21.847000122070312 81.79900360107422 L 33.55099868774414 88.55599975585938 L 21.847000122070312 95.31300354003906 Z" fill="#00BAD4"/>
					<path d="M 21.847000122070312 81.79900360107422 L 10.144000053405762 75.04299926757812 L 21.847000122070312 68.28600311279297 Z" opacity="0.5" fill="#00DECD"/>
					<path d="M 21.847000122070312 68.28500366210938 L 33.55099868774414 75.04299926757812 L 21.847000122070312 81.79900360107422 Z" fill="#00BAD4"/>
					<path d="M 21.847000122070312 68.28500366210938 L 10.144000053405762 61.52899932861328 L 21.847000122070312 54.770999908447266 Z" fill="#00BAD4"/>
					<path d="M 21.847000122070312 54.770999908447266 L 33.55099868774414 61.52799987792969 L 21.847000122070312 68.28500366210938 Z" fill="#00BAD4"/>
					<path d="M 21.847000122070312 54.770999908447266 L 10.144000053405762 48.01499938964844 L 21.847000122070312 41.257999420166016 Z" fill="#00BAD4"/>
					<path d="M 21.847000122070312 41.25699996948242 L 33.55099868774414 48.013999938964844 L 21.847000122070312 54.770999908447266 Z" fill="#00BAD4"/>
					<path d="M 21.847000122070312 41.25699996948242 L 10.144000053405762 34.5 L 21.847000122070312 27.743000030517578 Z" fill="#00BAD4"/>
					<path d="M 21.847000122070312 27.743000030517578 L 33.55099868774414 34.5 L 21.847000122070312 41.25699996948242 Z" fill="#00BAD4"/>
					<path d="M 21.847000122070312 27.743000030517578 L 10.144000053405762 20.986000061035156 L 21.847000122070312 14.229000091552734 Z" opacity="0.7" fill="#00BAD4"/>
					<path d="M 21.847000122070312 14.229000091552734 L 33.55099868774414 20.985000610351562 L 21.847000122070312 27.743000030517578 Z" opacity="0.7" fill="#00BAD4"/>
					<path d="M 21.847000122070312 14.229000091552734 L 10.144000053405762 7.4720001220703125 L 21.847000122070312 0.7149999737739563 Z" opacity="0.5" fill="#00DECD"/>
					<path d="M 21.847000122070312 0.7139999866485596 L 10.144000053405762 -6.041999816894531 L 21.847000122070312 -12.800000190734863 Z" opacity="0.7" fill="#00BAD4"/>
					<path d="M 21.847000122070312 -12.800000190734863 L 33.55099868774414 -6.043000221252441 L 21.847000122070312 0.7139999866485596 Z" fill="#00BAD4"/>
					<path d="M 21.847 -12.8 L 10.144 -19.556999" opacity="0.5" fill="#00DECD"/>
					<path d="M 21.847 162.884995 L 33.550999 156.128006" opacity="0.7" fill="#00BAD4"/>
					<path d="M 33.550999 156.128006 L 45.254002 162.884995" fill="#00BAD4"/>
					<path d="M 33.55099868774414 156.1280059814453 L 21.847000122070312 149.37100219726562 L 33.55099868774414 142.61500549316406 Z" opacity="0.7" fill="#00BAD4"/>
					<path d="M 33.55099868774414 142.61399841308594 L 45.25400161743164 149.37100219726562 L 33.55099868774414 156.1269989013672 Z" fill="#00BAD4"/>
					<path d="M 33.55099868774414 142.61399841308594 L 21.847000122070312 135.85699462890625 L 33.55099868774414 129.10000610351562 Z" opacity="0.7" fill="#00BAD4"/>
					<path d="M 33.55099868774414 129.0989990234375 L 45.25400161743164 135.85699462890625 L 33.55099868774414 142.61399841308594 Z" fill="#00BAD4"/>
					<path d="M 33.55099868774414 129.0989990234375 L 21.847000122070312 122.34200286865234 L 33.55099868774414 115.58499908447266 Z" fill="#0095C1"/>
					<path d="M 33.55099868774414 115.58499908447266 L 45.25400161743164 122.34200286865234 L 33.55099868774414 129.0989990234375 Z" fill="#00BAD4"/>
					<path d="M 33.55099868774414 115.58499908447266 L 21.847000122070312 108.8290023803711 L 33.55099868774414 102.0719985961914 Z" opacity="0.7" fill="#00BAD4"/>
					<path d="M 33.55099868774414 102.07099914550781 L 45.25400161743164 108.8290023803711 L 33.55099868774414 115.58499908447266 Z" opacity="0.5" fill="#00DECD"/>
					<path d="M 33.55099868774414 102.07099914550781 L 21.847000122070312 95.31400299072266 L 33.55099868774414 88.55699920654297 Z" opacity="0.5" fill="#00DECD"/>
					<path d="M 33.55099868774414 88.55699920654297 L 45.25400161743164 95.31400299072266 L 33.55099868774414 102.07099914550781 Z" fill="#00BAD4"/>
					<path d="M 33.55099868774414 88.55699920654297 L 21.847000122070312 81.79900360107422 L 33.55099868774414 75.04299926757812 Z" opacity="0.7" fill="#00BAD4"/>
					<path d="M 33.55099868774414 75.04299926757812 L 45.25400161743164 81.79900360107422 L 33.55099868774414 88.55699920654297 Z" fill="#00BAD4"/>
					<path d="M 33.55099868774414 75.04299926757812 L 21.847000122070312 68.28600311279297 L 33.55099868774414 61.52899932861328 Z" fill="#0095C1"/>
					<path d="M 33.55099868774414 61.52899932861328 L 45.25400161743164 68.28600311279297 L 33.55099868774414 75.04299926757812 Z" opacity="0.7" fill="#00BAD4"/>
					<path d="M 33.55099868774414 61.52899932861328 L 21.847000122070312 54.770999908447266 L 33.55099868774414 48.01499938964844 Z" opacity="0.7" fill="#00BAD4"/>
					<path d="M 33.55099868774414 48.01499938964844 L 45.25400161743164 54.770999908447266 L 33.55099868774414 61.52799987792969 Z" fill="#0095C1"/>
					<path d="M 33.55099868774414 48.01499938964844 L 21.847000122070312 41.257999420166016 L 33.55099868774414 34.500999450683594 Z" opacity="0.7" fill="#00BAD4"/>
					<path d="M 33.55099868774414 34.5 L 45.25400161743164 41.257999420166016 L 33.55099868774414 48.013999938964844 Z" fill="#00BAD4"/>
					<path d="M 33.55099868774414 20.986000061035156 L 45.25400161743164 27.743000030517578 L 33.55099868774414 34.5 Z" fill="#00BAD4"/>
					<path d="M 33.55099868774414 20.986000061035156 L 21.847000122070312 14.229000091552734 L 33.55099868774414 7.4720001220703125 Z" fill="#00BAD4"/>
					<path d="M 33.55099868774414 7.4720001220703125 L 45.25400161743164 14.229000091552734 L 33.55099868774414 20.986000061035156 Z" opacity="0.5" fill="#00DECD"/>
					<path d="M 33.55099868774414 7.4720001220703125 L 21.847000122070312 0.7149999737739563 L 33.55099868774414 -6.041999816894531 Z" opacity="0.7" fill="#00BAD4"/>
					<path d="M 33.55099868774414 -6.041999816894531 L 45.25400161743164 0.7149999737739563 L 33.55099868774414 7.4720001220703125 Z" opacity="0.2" fill="#00DECD"/>
					<path d="M 33.55099868774414 -6.041999816894531 L 21.847000122070312 -12.800000190734863 L 33.55099868774414 -19.55699920654297 Z" opacity="0.5" fill="#00DECD"/>
					<path fill="#00BAD4" d="M33.551-19.557"/>
					<path opacity="0.7" fill="#00BAD4" d="M45.249,162.885"/>
					<path d="M 45.249000549316406 149.37100219726562 L 56.952999114990234 156.1269989013672 L 45.249000549316406 162.88400268554688 Z" opacity="0.5" fill="#00DECD"/>
					<path d="M 45.249000549316406 149.37100219726562 L 33.54600143432617 142.61399841308594 L 45.249000549316406 135.85699462890625 Z" opacity="0.7" fill="#00BAD4"/>
					<path d="M 45.249000549316406 135.85699462890625 L 56.952999114990234 142.61300659179688 L 45.249000549316406 149.37100219726562 Z" opacity="0.2" fill="#00DECD"/>
					<path d="M 45.249000549316406 135.85699462890625 L 33.54600143432617 129.0989990234375 L 45.249000549316406 122.34200286865234 Z" opacity="0.5" fill="#00DECD"/>
					<path d="M 45.249000549316406 122.34200286865234 L 56.952999114990234 129.0989990234375 L 45.249000549316406 135.8560028076172 Z" opacity="0.7" fill="#00BAD4"/>
					<path d="M 45.249000549316406 122.34200286865234 L 33.54600143432617 115.58499908447266 L 45.249000549316406 108.8290023803711 Z" opacity="0.7" fill="#00BAD4"/>
					<path d="M 45.249000549316406 108.8290023803711 L 56.952999114990234 115.58399963378906 L 45.249000549316406 122.34200286865234 Z" opacity="0.7" fill="#00BAD4"/>
					<path d="M 45.249000549316406 108.8290023803711 L 33.54600143432617 102.07099914550781 L 45.249000549316406 95.31400299072266 Z" opacity="0.7" fill="#00BAD4"/>
					<path d="M 45.249000549316406 95.31400299072266 L 56.952999114990234 102.07099914550781 L 45.249000549316406 108.8280029296875 Z" opacity="0.7" fill="#00BAD4"/>
					<path d="M 45.249000549316406 95.31400299072266 L 33.54600143432617 88.55699920654297 L 45.249000549316406 81.79900360107422 Z" opacity="0.5" fill="#00DECD"/>
					<path d="M 45.249000549316406 81.79900360107422 L 56.952999114990234 88.55599975585938 L 45.249000549316406 95.31300354003906 Z" opacity="0.7" fill="#00BAD4"/>
					<path d="M 45.249000549316406 81.79900360107422 L 33.54600143432617 75.04299926757812 L 45.249000549316406 68.28600311279297 Z" opacity="0.5" fill="#00DECD"/>
					<path d="M 45.249000549316406 68.28500366210938 L 56.952999114990234 75.04299926757812 L 45.249000549316406 81.79900360107422 Z" opacity="0.2" fill="#00DECD"/>
					<path d="M 45.249000549316406 68.28500366210938 L 33.54600143432617 61.52899932861328 L 45.249000549316406 54.770999908447266 Z" fill="#00BAD4"/>
					<path d="M 45.249000549316406 54.770999908447266 L 56.952999114990234 61.52799987792969 L 45.249000549316406 68.28500366210938 Z" opacity="0.7" fill="#00BAD4"/>
					<path d="M 45.249000549316406 54.770999908447266 L 33.54600143432617 48.01499938964844 L 45.249000549316406 41.257999420166016 Z" fill="#00BAD4"/>
					<path d="M 45.249000549316406 41.25699996948242 L 56.952999114990234 48.013999938964844 L 45.249000549316406 54.770999908447266 Z" opacity="0.7" fill="#00BAD4"/>
					<path d="M 45.249000549316406 41.25699996948242 L 33.54600143432617 34.5 L 45.249000549316406 27.743000030517578 Z" opacity="0.5" fill="#00DECD"/>
					<path d="M 45.249000549316406 27.743000030517578 L 33.54600143432617 20.986000061035156 L 45.249000549316406 14.229000091552734 Z" fill="#00BAD4"/>
					<path d="M 45.249000549316406 14.229000091552734 L 56.952999114990234 20.985000610351562 L 45.249000549316406 27.743000030517578 Z" opacity="0.7" fill="#00BAD4"/>
					<path d="M 45.249000549316406 14.229000091552734 L 33.54600143432617 7.4720001220703125 L 45.249000549316406 0.7149999737739563 Z" fill="#00BAD4"/>
					<path d="M 45.249000549316406 0.7139999866485596 L 33.54600143432617 -6.041999816894531 L 45.249000549316406 -12.800000190734863 Z" fill="#00BAD4"/>
					<path d="M 45.249000549316406 -12.800000190734863 L 56.952999114990234 -6.043000221252441 L 45.249000549316406 0.7139999866485596 Z" opacity="0.2" fill="#00DECD"/>
					<path d="M 45.249001 -12.8 L 33.546001 -19.556999" fill="#00BAD4"/>
					<path d="M 56.952999 -19.556999 L 45.249001 -12.8" opacity="0.7" fill="#00BAD4"/>
					<path d="M 45.249001 162.884995 L 56.952999 156.128006" opacity="0.7" fill="#00BAD4"/>
					<path d="M 56.952999 156.128006 L 68.655998 162.884995" opacity="0.5" fill="#00DECD"/>
					<path d="M 56.952999114990234 156.1280059814453 L 45.249000549316406 149.37100219726562 L 56.952999114990234 142.61500549316406 Z" opacity="0.7" fill="#00BAD4"/>
					<path d="M 56.952999114990234 142.61399841308594 L 45.249000549316406 135.85699462890625 L 56.952999114990234 129.10000610351562 Z" opacity="0.5" fill="#00DECD"/>
					<path d="M 56.952999114990234 129.0989990234375 L 68.65599822998047 135.85699462890625 L 56.952999114990234 142.61399841308594 Z" opacity="0.7" fill="#00BAD4"/>
					<path d="M 56.952999114990234 129.0989990234375 L 45.249000549316406 122.34200286865234 L 56.952999114990234 115.58499908447266 Z" opacity="0.5" fill="#00DECD"/>
					<path d="M 56.952999114990234 115.58499908447266 L 68.65599822998047 122.34200286865234 L 56.952999114990234 129.0989990234375 Z" opacity="0.5" fill="#00DECD"/>
					<path d="M 56.952999114990234 115.58499908447266 L 45.249000549316406 108.8290023803711 L 56.952999114990234 102.0719985961914 Z" opacity="0.2" fill="#00DECD"/>
					<path d="M 56.952999114990234 102.07099914550781 L 68.65599822998047 108.8290023803711 L 56.952999114990234 115.58499908447266 Z" opacity="0.7" fill="#00BAD4"/>
					<path d="M 56.952999114990234 102.07099914550781 L 45.249000549316406 95.31400299072266 L 56.952999114990234 88.55699920654297 Z" fill="#00BAD4"/>
					<path d="M 56.952999114990234 88.55699920654297 L 68.65599822998047 95.31400299072266 L 56.952999114990234 102.07099914550781 Z" opacity="0.7" fill="#00BAD4"/>
					<path d="M 56.952999114990234 88.55699920654297 L 45.249000549316406 81.79900360107422 L 56.952999114990234 75.04299926757812 Z" opacity="0.7" fill="#00BAD4"/>
					<path d="M 56.952999114990234 75.04299926757812 L 68.65599822998047 81.79900360107422 L 56.952999114990234 88.55699920654297 Z" opacity="0.7" fill="#00BAD4"/>
					<path d="M 56.952999114990234 75.04299926757812 L 45.249000549316406 68.28600311279297 L 56.952999114990234 61.52899932861328 Z" opacity="0.7" fill="#00BAD4"/>
					<path d="M 56.952999114990234 61.52899932861328 L 68.65599822998047 68.28600311279297 L 56.952999114990234 75.04299926757812 Z" opacity="0.2" fill="#00DECD"/>
					<path d="M 56.952999114990234 61.52899932861328 L 45.249000549316406 54.770999908447266 L 56.952999114990234 48.01499938964844 Z" opacity="0.5" fill="#00DECD"/>
					<path d="M 56.952999114990234 48.01499938964844 L 45.249000549316406 41.257999420166016 L 56.952999114990234 34.500999450683594 Z" opacity="0.7" fill="#00BAD4"/>
					<path d="M 56.952999114990234 34.5 L 68.65599822998047 41.257999420166016 L 56.952999114990234 48.013999938964844 Z" opacity="0.5" fill="#00DECD"/>
					<path d="M 56.952999114990234 20.986000061035156 L 68.65599822998047 27.743000030517578 L 56.952999114990234 34.5 Z" opacity="0.7" fill="#00BAD4"/>
					<path d="M 56.952999114990234 20.986000061035156 L 45.249000549316406 14.229000091552734 L 56.952999114990234 7.4720001220703125 Z" opacity="0.5" fill="#00DECD"/>
					<path d="M 56.952999114990234 7.4720001220703125 L 68.65599822998047 14.229000091552734 L 56.952999114990234 20.986000061035156 Z" opacity="0.7" fill="#00BAD4"/>
					<path d="M 56.952999114990234 7.4720001220703125 L 45.249000549316406 0.7149999737739563 L 56.952999114990234 -6.041999816894531 Z" opacity="0.7" fill="#00BAD4"/>
					<path d="M 56.952999114990234 -6.041999816894531 L 68.65599822998047 0.7149999737739563 L 56.952999114990234 7.4720001220703125 Z" opacity="0.5" fill="#00DECD"/>
					<path d="M 56.952999114990234 -19.55699920654297 L 68.65599822998047 -12.800000190734863 L 56.952999114990234 -6.043000221252441 Z" opacity="0.7" fill="#00BAD4"/>
					<path d="M 68.66200256347656 162.88400268554688 L 56.95800018310547 156.1280059814453 L 68.66200256347656 149.37100219726562 Z" opacity="0.2" fill="#00DECD"/>
					<path d="M 68.66200256347656 149.37100219726562 L 56.95800018310547 142.61399841308594 L 68.66200256347656 135.85699462890625 Z" opacity="0.7" fill="#00BAD4"/>
					<path d="M 68.66200256347656 135.85699462890625 L 56.95800018310547 129.0989990234375 L 68.66200256347656 122.34200286865234 Z" opacity="0.2" fill="#00DECD"/>
					<path d="M 68.66200256347656 122.34200286865234 L 80.36499786376953 129.0989990234375 L 68.66200256347656 135.8560028076172 Z" opacity="0.7" fill="#00BAD4"/>
					<path d="M 68.66200256347656 108.8290023803711 L 80.36499786376953 115.58399963378906 L 68.66200256347656 122.34200286865234 Z" opacity="0.5" fill="#00DECD"/>
					<path d="M 68.66200256347656 108.8290023803711 L 56.95800018310547 102.07099914550781 L 68.66200256347656 95.31400299072266 Z" opacity="0.2" fill="#00DECD"/>
					<path d="M 68.66200256347656 95.31400299072266 L 80.36499786376953 102.07099914550781 L 68.66200256347656 108.8280029296875 Z" opacity="0.5" fill="#00DECD"/>
					<path d="M 68.66200256347656 95.31400299072266 L 56.95800018310547 88.55699920654297 L 68.66200256347656 81.79900360107422 Z" opacity="0.2" fill="#00DECD"/>
					<path d="M 68.66200256347656 81.79900360107422 L 80.36499786376953 88.55599975585938 L 68.66200256347656 95.31300354003906 Z" opacity="0.5" fill="#00DECD"/>
					<path d="M 68.66200256347656 81.79900360107422 L 56.95800018310547 75.04299926757812 L 68.66200256347656 68.28600311279297 Z" opacity="0.5" fill="#00DECD"/>
					<path d="M 68.66200256347656 68.28500366210938 L 80.36499786376953 75.04299926757812 L 68.66200256347656 81.79900360107422 Z" opacity="0.2" fill="#00DECD"/>
					<path d="M 68.66200256347656 68.28500366210938 L 56.95800018310547 61.52899932861328 L 68.66200256347656 54.770999908447266 Z" opacity="0.7" fill="#00BAD4"/>
					<path d="M 68.66200256347656 54.770999908447266 L 56.95800018310547 48.01499938964844 L 68.66200256347656 41.257999420166016 Z" opacity="0.2" fill="#00DECD"/>
					<path d="M 68.66200256347656 41.25699996948242 L 80.36499786376953 48.013999938964844 L 68.66200256347656 54.770999908447266 Z" opacity="0.7" fill="#00BAD4"/>
					<path d="M 68.66200256347656 27.743000030517578 L 80.36499786376953 34.5 L 68.66200256347656 41.25699996948242 Z" opacity="0.5" fill="#00DECD"/>
					<path d="M 68.66200256347656 27.743000030517578 L 56.95800018310547 20.986000061035156 L 68.66200256347656 14.229000091552734 Z" opacity="0.2" fill="#00DECD"/>
					<path d="M 68.662003 162.884995 L 80.364998 156.128006" opacity="0.7" fill="#00BAD4"/>
					<path d="M 80.36499786376953 156.1280059814453 L 68.66200256347656 149.37100219726562 L 80.36499786376953 142.61500549316406 Z" opacity="0.7" fill="#00BAD4"/>
					<path d="M 80.36499786376953 142.61399841308594 L 68.66200256347656 135.85699462890625 L 80.36499786376953 129.10000610351562 Z" opacity="0.5" fill="#00DECD"/>
					<path d="M 80.36499786376953 129.0989990234375 L 68.66200256347656 122.34200286865234 L 80.36499786376953 115.58499908447266 Z" opacity="0.2" fill="#00DECD"/>
					<path d="M 80.36499786376953 102.07099914550781 L 92.06900024414062 108.8290023803711 L 80.36499786376953 115.58499908447266 Z" opacity="0.2" fill="#00DECD"/>
					<path d="M 80.36499786376953 102.07099914550781 L 68.66200256347656 95.31400299072266 L 80.36499786376953 88.55699920654297 Z" opacity="0.2" fill="#00DECD"/>
					<path d="M 80.36499786376953 88.55699920654297 L 68.66200256347656 81.79900360107422 L 80.36499786376953 75.04299926757812 Z" opacity="0.2" fill="#00DECD"/>
					<path d="M 80.36499786376953 75.04299926757812 L 92.06900024414062 81.79900360107422 L 80.36499786376953 88.55699920654297 Z" opacity="0.5" fill="#00DECD"/>
					<path d="M 80.36499786376953 75.04299926757812 L 68.66200256347656 68.28600311279297 L 80.36499786376953 61.52899932861328 Z" opacity="0.5" fill="#00DECD"/>
					<path d="M 80.36499786376953 61.52899932861328 L 92.06900024414062 68.28600311279297 L 80.36499786376953 75.04299926757812 Z" opacity="0.7" fill="#00BAD4"/>
					<path d="M 80.36499786376953 61.52899932861328 L 68.66200256347656 54.770999908447266 L 80.36499786376953 48.01499938964844 Z" opacity="0.2" fill="#00DECD"/>
					<path d="M 80.36499786376953 48.01499938964844 L 92.06900024414062 54.770999908447266 L 80.36499786376953 61.52799987792969 Z" opacity="0.7" fill="#00BAD4"/>
					<path d="M 80.36499786376953 34.5 L 92.06900024414062 41.257999420166016 L 80.36499786376953 48.013999938964844 Z" opacity="0.5" fill="#00DECD"/>
					<path d="M 80.36499786376953 20.986000061035156 L 92.06900024414062 27.743000030517578 L 80.36499786376953 34.5 Z" opacity="0.2" fill="#00DECD"/>
					<path d="M 80.36499786376953 20.986000061035156 L 68.66200256347656 14.229000091552734 L 80.36499786376953 7.4720001220703125 Z" opacity="0.5" fill="#00DECD"/>
					<path d="M 92.0780029296875 135.85699462890625 L 103.78099822998047 142.61300659179688 L 92.0780029296875 149.37100219726562 Z" opacity="0.7" fill="#00BAD4"/>
					<path d="M 92.0780029296875 135.85699462890625 L 80.3740005493164 129.0989990234375 L 92.0780029296875 122.34200286865234 Z" opacity="0.5" fill="#00DECD"/>
					<path d="M 92.0780029296875 122.34200286865234 L 80.3740005493164 115.58499908447266 L 92.0780029296875 108.8290023803711 Z" opacity="0.5" fill="#00DECD"/>
					<path d="M 92.0780029296875 108.8290023803711 L 103.78099822998047 115.58399963378906 L 92.0780029296875 122.34200286865234 Z" opacity="0.2" fill="#00DECD"/>
					<path d="M 92.0780029296875 108.8290023803711 L 80.3740005493164 102.07099914550781 L 92.0780029296875 95.31400299072266 Z" opacity="0.5" fill="#00DECD"/>
					<path d="M 92.0780029296875 95.31400299072266 L 80.3740005493164 88.55699920654297 L 92.0780029296875 81.79900360107422 Z" opacity="0.2" fill="#00DECD"/>
					<path d="M 92.0780029296875 68.28500366210938 L 103.78099822998047 75.04299926757812 L 92.0780029296875 81.79900360107422 Z" opacity="0.5" fill="#00DECD"/>
					<path d="M 92.0780029296875 68.28500366210938 L 80.3740005493164 61.52899932861328 L 92.0780029296875 54.770999908447266 Z" opacity="0.5" fill="#00DECD"/>
					<path d="M 92.0780029296875 54.770999908447266 L 103.78099822998047 61.52799987792969 L 92.0780029296875 68.28500366210938 Z" opacity="0.5" fill="#00DECD"/>
					<path d="M 103.78099822998047 102.07099914550781 L 115.48400115966797 108.8290023803711 L 103.78099822998047 115.58499908447266 Z" opacity="0.5" fill="#00DECD"/>
					<path d="M 103.78099822998047 102.07099914550781 L 92.0780029296875 95.31400299072266 L 103.78099822998047 88.55699920654297 Z" opacity="0.5" fill="#00DECD"/>
					<path d="M 103.78099822998047 88.55699920654297 L 115.48400115966797 95.31400299072266 L 103.78099822998047 102.07099914550781 Z" opacity="0.2" fill="#00DECD"/>
					<path d="M 103.78099822998047 88.55699920654297 L 92.0780029296875 81.79900360107422 L 103.78099822998047 75.04299926757812 Z" opacity="0.2" fill="#00DECD"/>
					<path d="M 103.78099822998047 61.52899932861328 L 115.48400115966797 68.28600311279297 L 103.78099822998047 75.04299926757812 Z" opacity="0.5" fill="#00DECD"/>
					<path d="M 103.78099822998047 34.5 L 115.48400115966797 41.257999420166016 L 103.78099822998047 48.013999938964844 Z" opacity="0.2" fill="#00DECD"/>
				</g>
			</g>
		</g>
	</g>
</svg>